<mxfile host="app.diagrams.net" modified="2021-01-04T08:56:25.742Z" agent="5.0 (Windows NT 10.0; Win64; x64) AppleWebKit/537.36 (KHTML, like Gecko) Chrome/87.0.4280.88 Safari/537.36" etag="vh5fVfzT0pgjeCxfs0CM" version="14.1.8" type="github">
  <diagram id="C5RBs43oDa-KdzZeNtuy" name="Page-1">
    <mxGraphModel dx="1038" dy="548" grid="1" gridSize="10" guides="1" tooltips="1" connect="1" arrows="1" fold="1" page="1" pageScale="1" pageWidth="827" pageHeight="1169" math="0" shadow="0">
      <root>
        <mxCell id="WIyWlLk6GJQsqaUBKTNV-0" />
        <mxCell id="WIyWlLk6GJQsqaUBKTNV-1" parent="WIyWlLk6GJQsqaUBKTNV-0" />
        <mxCell id="UtqjSDrUtwF8k4mtmBgl-2" value="" style="endArrow=none;dashed=1;html=1;fillColor=#dae8fc;strokeColor=#6c8ebf;" edge="1" parent="WIyWlLk6GJQsqaUBKTNV-1">
          <mxGeometry width="50" height="50" relative="1" as="geometry">
            <mxPoint x="150" y="310" as="sourcePoint" />
            <mxPoint x="610" y="310" as="targetPoint" />
          </mxGeometry>
        </mxCell>
        <mxCell id="UtqjSDrUtwF8k4mtmBgl-4" value="Dense" style="shape=dataStorage;whiteSpace=wrap;html=1;fixedSize=1;fillColor=#0050ef;strokeColor=#001DBC;fontColor=#ffffff;" vertex="1" parent="WIyWlLk6GJQsqaUBKTNV-1">
          <mxGeometry x="170" y="330" width="100" height="30" as="geometry" />
        </mxCell>
        <mxCell id="UtqjSDrUtwF8k4mtmBgl-5" value="Sparse" style="shape=dataStorage;whiteSpace=wrap;html=1;fixedSize=1;fillColor=#0050ef;strokeColor=#001DBC;fontColor=#ffffff;" vertex="1" parent="WIyWlLk6GJQsqaUBKTNV-1">
          <mxGeometry x="280" y="330" width="100" height="30" as="geometry" />
        </mxCell>
        <mxCell id="UtqjSDrUtwF8k4mtmBgl-6" value="ps shard-0" style="rounded=1;whiteSpace=wrap;html=1;fillColor=#dae8fc;strokeColor=#6c8ebf;" vertex="1" parent="WIyWlLk6GJQsqaUBKTNV-1">
          <mxGeometry x="494" y="330" width="90" height="30" as="geometry" />
        </mxCell>
        <mxCell id="UtqjSDrUtwF8k4mtmBgl-7" value="ps shard-1" style="rounded=1;whiteSpace=wrap;html=1;fillColor=#dae8fc;strokeColor=#6c8ebf;" vertex="1" parent="WIyWlLk6GJQsqaUBKTNV-1">
          <mxGeometry x="504" y="340" width="90" height="30" as="geometry" />
        </mxCell>
        <mxCell id="UtqjSDrUtwF8k4mtmBgl-8" value="ps shard-1" style="rounded=1;whiteSpace=wrap;html=1;fillColor=#dae8fc;strokeColor=#6c8ebf;" vertex="1" parent="WIyWlLk6GJQsqaUBKTNV-1">
          <mxGeometry x="514" y="350" width="90" height="30" as="geometry" />
        </mxCell>
        <mxCell id="UtqjSDrUtwF8k4mtmBgl-9" value="ps shard-n" style="rounded=1;whiteSpace=wrap;html=1;fillColor=#dae8fc;strokeColor=#6c8ebf;" vertex="1" parent="WIyWlLk6GJQsqaUBKTNV-1">
          <mxGeometry x="524" y="360" width="90" height="30" as="geometry" />
        </mxCell>
        <mxCell id="UtqjSDrUtwF8k4mtmBgl-12" value="Dicts etc" style="shape=dataStorage;whiteSpace=wrap;html=1;fixedSize=1;fillColor=#0050ef;strokeColor=#001DBC;fontColor=#ffffff;" vertex="1" parent="WIyWlLk6GJQsqaUBKTNV-1">
          <mxGeometry x="380" y="330" width="100" height="30" as="geometry" />
        </mxCell>
        <mxCell id="UtqjSDrUtwF8k4mtmBgl-13" value="存储层" style="text;html=1;strokeColor=none;fillColor=none;align=center;verticalAlign=middle;whiteSpace=wrap;rounded=0;" vertex="1" parent="WIyWlLk6GJQsqaUBKTNV-1">
          <mxGeometry x="670" y="345" width="40" height="20" as="geometry" />
        </mxCell>
        <mxCell id="UtqjSDrUtwF8k4mtmBgl-14" value="业务层" style="text;html=1;strokeColor=none;fillColor=none;align=center;verticalAlign=middle;whiteSpace=wrap;rounded=0;" vertex="1" parent="WIyWlLk6GJQsqaUBKTNV-1">
          <mxGeometry x="670" y="250" width="40" height="20" as="geometry" />
        </mxCell>
        <mxCell id="UtqjSDrUtwF8k4mtmBgl-17" value="Video NN service" style="rounded=0;whiteSpace=wrap;html=1;fillColor=#dae8fc;strokeColor=#6c8ebf;" vertex="1" parent="WIyWlLk6GJQsqaUBKTNV-1">
          <mxGeometry x="494" y="255" width="100" height="30" as="geometry" />
        </mxCell>
        <mxCell id="UtqjSDrUtwF8k4mtmBgl-18" value="VRecall service" style="rounded=0;whiteSpace=wrap;html=1;fillColor=#dae8fc;strokeColor=#6c8ebf;" vertex="1" parent="WIyWlLk6GJQsqaUBKTNV-1">
          <mxGeometry x="380" y="255" width="100" height="30" as="geometry" />
        </mxCell>
        <mxCell id="UtqjSDrUtwF8k4mtmBgl-19" value="TRecall service" style="rounded=0;whiteSpace=wrap;html=1;fillColor=#dae8fc;strokeColor=#6c8ebf;" vertex="1" parent="WIyWlLk6GJQsqaUBKTNV-1">
          <mxGeometry x="160" y="255" width="100" height="30" as="geometry" />
        </mxCell>
        <mxCell id="UtqjSDrUtwF8k4mtmBgl-20" value="" style="endArrow=none;dashed=1;html=1;fillColor=#dae8fc;strokeColor=#6c8ebf;" edge="1" parent="WIyWlLk6GJQsqaUBKTNV-1">
          <mxGeometry width="50" height="50" relative="1" as="geometry">
            <mxPoint x="154" y="224" as="sourcePoint" />
            <mxPoint x="614" y="224" as="targetPoint" />
          </mxGeometry>
        </mxCell>
        <mxCell id="UtqjSDrUtwF8k4mtmBgl-21" value="接入层" style="text;html=1;strokeColor=none;fillColor=none;align=center;verticalAlign=middle;whiteSpace=wrap;rounded=0;" vertex="1" parent="WIyWlLk6GJQsqaUBKTNV-1">
          <mxGeometry x="670" y="153" width="40" height="20" as="geometry" />
        </mxCell>
        <mxCell id="UtqjSDrUtwF8k4mtmBgl-23" value="Video Proxy" style="rounded=0;whiteSpace=wrap;html=1;fillColor=#dae8fc;strokeColor=#6c8ebf;" vertex="1" parent="WIyWlLk6GJQsqaUBKTNV-1">
          <mxGeometry x="380" y="169" width="100" height="30" as="geometry" />
        </mxCell>
        <mxCell id="UtqjSDrUtwF8k4mtmBgl-24" value="Txt Proxy" style="rounded=0;whiteSpace=wrap;html=1;fillColor=#dae8fc;strokeColor=#6c8ebf;" vertex="1" parent="WIyWlLk6GJQsqaUBKTNV-1">
          <mxGeometry x="270" y="169" width="100" height="30" as="geometry" />
        </mxCell>
        <mxCell id="UtqjSDrUtwF8k4mtmBgl-28" value="" style="endArrow=classic;html=1;entryX=0.5;entryY=0;entryDx=0;entryDy=0;fillColor=#dae8fc;strokeColor=#6c8ebf;" edge="1" parent="WIyWlLk6GJQsqaUBKTNV-1" target="UtqjSDrUtwF8k4mtmBgl-19">
          <mxGeometry width="50" height="50" relative="1" as="geometry">
            <mxPoint x="320" y="199" as="sourcePoint" />
            <mxPoint x="300" y="259" as="targetPoint" />
          </mxGeometry>
        </mxCell>
        <mxCell id="UtqjSDrUtwF8k4mtmBgl-29" value="" style="endArrow=classic;html=1;fillColor=#dae8fc;strokeColor=#6c8ebf;" edge="1" parent="WIyWlLk6GJQsqaUBKTNV-1">
          <mxGeometry width="50" height="50" relative="1" as="geometry">
            <mxPoint x="320" y="110" as="sourcePoint" />
            <mxPoint x="320" y="169" as="targetPoint" />
          </mxGeometry>
        </mxCell>
        <mxCell id="UtqjSDrUtwF8k4mtmBgl-30" value="" style="endArrow=classic;html=1;fillColor=#dae8fc;strokeColor=#6c8ebf;" edge="1" parent="WIyWlLk6GJQsqaUBKTNV-1">
          <mxGeometry width="50" height="50" relative="1" as="geometry">
            <mxPoint x="433" y="109" as="sourcePoint" />
            <mxPoint x="433" y="168" as="targetPoint" />
          </mxGeometry>
        </mxCell>
        <mxCell id="UtqjSDrUtwF8k4mtmBgl-31" value="" style="endArrow=classic;html=1;entryX=0.5;entryY=0;entryDx=0;entryDy=0;fillColor=#dae8fc;strokeColor=#6c8ebf;" edge="1" parent="WIyWlLk6GJQsqaUBKTNV-1" target="UtqjSDrUtwF8k4mtmBgl-32">
          <mxGeometry width="50" height="50" relative="1" as="geometry">
            <mxPoint x="320" y="200" as="sourcePoint" />
            <mxPoint x="330" y="179" as="targetPoint" />
          </mxGeometry>
        </mxCell>
        <mxCell id="UtqjSDrUtwF8k4mtmBgl-32" value="Txt NN service" style="rounded=0;whiteSpace=wrap;html=1;fillColor=#dae8fc;strokeColor=#6c8ebf;" vertex="1" parent="WIyWlLk6GJQsqaUBKTNV-1">
          <mxGeometry x="270" y="255" width="100" height="30" as="geometry" />
        </mxCell>
        <mxCell id="UtqjSDrUtwF8k4mtmBgl-37" value="" style="endArrow=classic;html=1;fillColor=#dae8fc;strokeColor=#6c8ebf;entryX=0.5;entryY=0;entryDx=0;entryDy=0;exitX=0.416;exitY=0.987;exitDx=0;exitDy=0;exitPerimeter=0;" edge="1" parent="WIyWlLk6GJQsqaUBKTNV-1" source="UtqjSDrUtwF8k4mtmBgl-32" target="UtqjSDrUtwF8k4mtmBgl-8">
          <mxGeometry width="50" height="50" relative="1" as="geometry">
            <mxPoint x="320" y="290" as="sourcePoint" />
            <mxPoint x="443" y="178" as="targetPoint" />
          </mxGeometry>
        </mxCell>
        <mxCell id="UtqjSDrUtwF8k4mtmBgl-42" value="" style="endArrow=classic;html=1;fillColor=#dae8fc;strokeColor=#6c8ebf;entryX=0.5;entryY=0;entryDx=0;entryDy=0;" edge="1" parent="WIyWlLk6GJQsqaUBKTNV-1" source="UtqjSDrUtwF8k4mtmBgl-17" target="UtqjSDrUtwF8k4mtmBgl-8">
          <mxGeometry width="50" height="50" relative="1" as="geometry">
            <mxPoint x="539" y="290" as="sourcePoint" />
            <mxPoint x="549" y="340" as="targetPoint" />
          </mxGeometry>
        </mxCell>
        <mxCell id="UtqjSDrUtwF8k4mtmBgl-44" value="" style="endArrow=classic;html=1;fillColor=#dae8fc;strokeColor=#6c8ebf;" edge="1" parent="WIyWlLk6GJQsqaUBKTNV-1" target="UtqjSDrUtwF8k4mtmBgl-18">
          <mxGeometry width="50" height="50" relative="1" as="geometry">
            <mxPoint x="430" y="200" as="sourcePoint" />
            <mxPoint x="330" y="265" as="targetPoint" />
          </mxGeometry>
        </mxCell>
        <mxCell id="UtqjSDrUtwF8k4mtmBgl-45" value="" style="endArrow=classic;html=1;entryX=0.5;entryY=0;entryDx=0;entryDy=0;fillColor=#dae8fc;strokeColor=#6c8ebf;" edge="1" parent="WIyWlLk6GJQsqaUBKTNV-1" target="UtqjSDrUtwF8k4mtmBgl-17">
          <mxGeometry width="50" height="50" relative="1" as="geometry">
            <mxPoint x="430" y="200" as="sourcePoint" />
            <mxPoint x="220" y="265" as="targetPoint" />
          </mxGeometry>
        </mxCell>
      </root>
    </mxGraphModel>
  </diagram>
</mxfile>
